HIERARCHY
ROOT Hips
{
	OFFSET -3.958830 18.904000 13.208200
	CHANNELS 6 Xposition Yposition Zposition Zrotation Yrotation Xrotation 
	JOINT LHipJoint
	{
		OFFSET 0.000000 0.000000 0.000000
		CHANNELS 3 Zrotation Yrotation Xrotation
		JOINT LeftUpLeg
		{
			OFFSET 1.800000 -1.400000 0.085000
			CHANNELS 3 Zrotation Yrotation Xrotation
			JOINT LeftLeg
			{
				OFFSET 2.215000 -6.000000 0.000000
				CHANNELS 3 Zrotation Yrotation Xrotation
				JOINT LeftFoot
				{
					OFFSET 2.500000 -6.900000 0.000000
					CHANNELS 3 Zrotation Yrotation Xrotation
					JOINT LeftToeBase
					{
						OFFSET 0.200000 -0.500000 1.950000
						CHANNELS 3 Zrotation Yrotation Xrotation
						End Site
						{
							OFFSET 0.000000 0.000000 0.000000
						}
					}
				}
			}
		}
	}
	JOINT RHipJoint
	{
		OFFSET 0.000000 0.000000 0.000000
		CHANNELS 3 Zrotation Yrotation Xrotation
		JOINT RightUpLeg
		{
			OFFSET -1.800000 -1.400000 0.085000
			CHANNELS 3 Zrotation Yrotation Xrotation
			JOINT RightLeg
			{
				OFFSET -2.215000 -6.000000 0.000000
				CHANNELS 3 Zrotation Yrotation Xrotation
				JOINT RightFoot
				{
					OFFSET -2.500000 -6.900000 0.000000
					CHANNELS 3 Zrotation Yrotation Xrotation
					JOINT RightToeBase
					{
						OFFSET -0.200000 -0.500000 1.950000
						CHANNELS 3 Zrotation Yrotation Xrotation
						End Site
						{
							OFFSET 0.000000 0.000000 0.000000
						}
					}
				}
			}
		}
	}
	JOINT LowerBack
	{
		OFFSET 0.000000 0.000000 0.000000
		CHANNELS 3 Zrotation Yrotation Xrotation
		JOINT Spine
		{
			OFFSET -0.087000 1.940000 -0.288900
			CHANNELS 3 Zrotation Yrotation Xrotation
			JOINT Spine1
			{
				OFFSET 0.000000 1.950000 0.060000
				CHANNELS 3 Zrotation Yrotation Xrotation
				JOINT Neck
				{
					OFFSET 0.000000 0.000000 0.000000
					CHANNELS 3 Zrotation Yrotation Xrotation
					JOINT Neck1
					{
						OFFSET 0.000000 1.600000 0.340000
						CHANNELS 3 Zrotation Yrotation Xrotation
						JOINT Head
						{
							OFFSET 0.000000 1.667000 -0.240000
							CHANNELS 3 Zrotation Yrotation Xrotation
							End Site
							{
								OFFSET 0.000000 0.000000 0.000000
							}
						}
					}
				}
				JOINT LeftShoulder
				{
					OFFSET 0.000000 0.000000 0.000000
					CHANNELS 3 Zrotation Yrotation Xrotation
					JOINT LeftArm
					{
						OFFSET 2.700000 1.550000 -0.730000
						CHANNELS 3 Zrotation Yrotation Xrotation
						JOINT LeftForeArm
						{
							OFFSET 5.450000 0.000000 0.000000
							CHANNELS 3 Zrotation Yrotation Xrotation
							JOINT LeftHand
							{
								OFFSET 3.450000 0.000000 0.000000
								CHANNELS 3 Zrotation Yrotation Xrotation
								JOINT LeftHandIndex1
								{
									OFFSET 0.750000 0.000000 0.000000
									CHANNELS 3 Zrotation Yrotation Xrotation
									End Site
									{
										OFFSET 0.000000 0.000000 0.000000
									}
								}
							}
						}
					}
				}
				JOINT RightShoulder
				{
					OFFSET 0.000000 0.000000 0.000000
					CHANNELS 3 Zrotation Yrotation Xrotation
					JOINT RightArm
					{
						OFFSET -2.700000 1.550000 -0.730000
						CHANNELS 3 Zrotation Yrotation Xrotation
						JOINT RightForeArm
						{
							OFFSET -5.450000 0.000000 0.000000
							CHANNELS 3 Zrotation Yrotation Xrotation
							JOINT RightHand
							{
								OFFSET -3.450000 0.000000 0.000000
								CHANNELS 3 Zrotation Yrotation Xrotation
								JOINT RightHandIndex1
								{
									OFFSET -0.750000 0.000000 0.000000
									CHANNELS 3 Zrotation Yrotation Xrotation
									End Site
									{
										OFFSET 0.000000 0.000000 0.000000
									}
								}
							}
						}
					}
				}
			}
		}
	}
}
MOTION
Frames: 12
Frame Time: 0.016667
1.181250 15.534430 0.275970 2.795238 -9.583283 -1.517178 -15.189706 12.466744 4.515892 17.313685 -4.310845 -26.677610 -22.394463 15.197330 28.911018 0.350379 8.225207 1.479494 0.502380 0.420040 0.388320 18.320664 -10.501853 2.104023 -12.324376 2.948982 -27.171407 -2.921538 -6.461404 43.247045 -0.556444 -5.815122 2.177316 0.343980 -0.066580 0.091480 -3.540208 -1.942194 -8.010113 8.744624 -1.829615 20.202334 -5.172881 0.264209 1.570051 1.504158 -6.115577 -3.749351 -11.974489 4.301926 28.441309 -2.514210 2.619030 -15.834010 -29.669839 4.585250 -3.529521 -41.309424 -4.535616 -6.783718 -30.956914 -61.187286 15.257025 -3.568056 3.391104 0.294830 -0.033200 0.116770 0.118090 25.685335 -0.820673 2.520607 40.359592 -6.129515 -10.616679 47.925310 55.068857 18.979565 2.193231 -1.869146 -0.066300 0.172760 -0.143720 -0.168920 
1.209650 15.458660 0.267230 2.998295 -9.614073 -3.003985 -15.256887 12.507943 4.696289 17.719825 -4.699744 -29.034763 -19.913477 16.819278 35.725461 0.517221 9.079280 1.173414 0.496820 0.404480 0.404820 18.263464 -10.416902 2.098678 -12.213988 3.419244 -26.743203 -4.034398 -6.231190 45.904920 -0.659346 -6.150589 2.070641 0.306850 -0.119510 0.083280 -3.362563 -2.178260 -8.230088 7.688491 -1.660582 23.006190 -4.252769 0.571394 -0.053176 1.508880 -6.047332 -4.018176 -12.449905 4.725863 31.111219 -2.425800 2.803860 -16.153980 -31.071973 3.625468 -3.257484 -40.096252 -2.336500 -8.290596 -24.495451 -55.664705 10.167146 -3.493170 3.322233 0.341040 -0.084230 0.158820 0.102870 27.214311 0.681591 2.712463 39.582161 -5.372406 -11.167468 45.477889 56.903128 18.701066 2.216375 -1.830427 -0.052580 0.155900 -0.150840 -0.179680 
1.234910 15.388010 0.257680 2.996316 -9.677929 -4.697152 -15.317916 12.641902 4.768201 17.384414 -5.018800 -31.319976 -14.949212 17.328337 43.378344 0.640065 9.779278 0.921271 0.503990 0.407960 0.430880 18.198058 -10.399525 2.077504 -11.998519 3.836136 -25.619194 -4.866265 -5.978096 47.979871 -0.759066 -6.416956 1.986119 0.283640 -0.176880 0.077960 -3.176534 -2.410236 -8.373906 6.557822 -1.279536 25.716181 -3.019785 1.073232 -1.294792 1.480116 -5.744610 -4.268541 -12.576953 5.075874 34.387392 -2.364300 2.928350 -16.710140 -32.211660 2.798927 -2.788373 -39.279867 -0.027587 -9.358548 -20.378267 -51.542871 7.237800 -3.423804 3.269979 0.388800 -0.135150 0.208680 0.086980 28.588046 2.030048 2.694915 38.663013 -4.010540 -11.536718 43.417329 59.058158 18.745125 2.232370 -1.795514 -0.035940 0.144950 -0.159820 -0.191610 
1.265220 15.322070 0.249460 2.588129 -9.853053 -6.233287 -15.352814 12.876705 4.673506 16.242835 -5.145036 -33.155678 -7.833187 15.883275 50.403682 0.686299 10.082535 0.807641 0.498880 0.401280 0.442700 18.142558 -10.423356 2.115347 -11.540186 4.344175 -24.508153 -5.298503 -5.815154 49.779995 -0.840385 -6.672170 1.908256 0.262610 -0.211040 0.075210 -3.034561 -2.632418 -8.443318 5.931872 -1.038388 28.054797 -1.734794 1.488547 -2.287547 1.477855 -5.236768 -4.520412 -12.188124 5.449592 37.875332 -2.400000 3.086600 -16.283780 -33.575276 1.730732 -2.017745 -38.277854 2.717117 -10.127877 -17.533177 -47.857117 5.289434 -3.376088 3.245257 0.412540 -0.161500 0.236760 0.070240 30.168406 3.485215 2.504991 37.011120 -1.949049 -11.463772 42.348855 60.941875 19.219273 2.245820 -1.777973 -0.023540 0.133920 -0.158400 -0.198710 
1.287200 15.257760 0.235770 1.846166 -9.959515 -7.594568 -15.380672 13.126692 4.494448 14.744206 -5.124597 -34.678770 0.225714 12.783828 56.085813 0.686028 10.092103 0.795501 0.502030 0.402020 0.462570 18.096589 -10.425869 2.202763 -11.170278 4.923580 -23.650431 -4.855334 -6.132859 51.626795 -0.932105 -6.981240 1.810094 0.252520 -0.242740 0.074390 -2.919275 -2.837953 -8.475100 5.469909 -0.786736 30.240402 -0.615319 1.948731 -3.019591 1.507739 -4.555145 -4.777294 -11.169172 5.501715 40.548390 -2.584260 3.258810 -16.359500 -34.706779 0.599428 -1.199192 -36.718620 5.347719 -10.532919 -14.823387 -45.171947 3.831353 -3.331373 3.231941 0.440580 -0.183310 0.264100 0.055690 31.445487 4.823168 2.371110 35.793241 0.013793 -11.441986 42.146719 63.662103 20.425850 2.248476 -1.770861 -0.017900 0.129230 -0.158850 -0.211020 
1.323610 15.195050 0.231820 0.943365 -10.103937 -8.762069 -15.393986 13.409444 4.270825 12.663675 -5.053228 -35.411093 8.352951 8.317247 58.972789 0.662394 9.794361 0.887335 0.515870 0.417180 0.486300 18.054699 -10.461781 2.281815 -10.866858 5.362158 -22.695082 -4.325087 -6.440135 52.856650 -1.006134 -7.203409 1.734601 0.252000 -0.277580 0.079310 -2.827150 -3.025998 -8.451440 5.517279 -0.485374 31.993418 0.413400 2.540810 -3.225881 1.659572 -3.828442 -5.065655 -9.847940 5.324594 42.528854 -2.789760 3.417560 -16.652770 -35.292598 -0.361842 -0.451837 -35.631366 7.451479 -10.689496 -12.166688 -43.098183 2.665891 -3.295866 3.225874 0.462420 -0.203220 0.292520 0.044310 31.880163 5.948336 2.315553 34.130298 1.776094 -11.167175 43.265026 66.323802 22.393566 2.258075 -1.777491 -0.006160 0.117150 -0.165310 -0.221690 
1.372120 15.133100 0.240860 -0.296100 -10.056547 -9.603314 -15.406217 13.708925 4.054109 10.041554 -5.048200 -35.361422 17.036937 2.735133 58.957159 0.647756 9.469629 1.013805 0.512930 0.401480 0.505440 18.013756 -10.461461 2.354386 -10.583621 5.688419 -21.666916 -3.276255 -7.012966 53.569927 -1.056620 -7.373804 1.681608 0.247940 -0.291130 0.075320 -2.744347 -3.324963 -8.398550 6.116346 -0.562108 33.258259 1.617550 2.853641 -3.268246 1.643957 -4.037128 -5.304663 -10.301559 5.434836 43.248584 -3.723990 3.281290 -17.187880 -35.349927 -0.513878 0.070330 -35.440334 9.723674 -10.753400 -10.400891 -40.878483 1.873141 -3.286770 3.176151 0.490490 -0.214920 0.303920 0.032430 32.027278 6.782426 2.270658 32.244760 3.268524 -10.801546 45.516962 69.809613 25.575579 2.271968 -1.768109 -0.020860 0.132010 -0.157900 -0.237910 
1.444880 15.075380 0.264530 -1.907397 -9.678208 -10.067703 -15.407956 13.934677 3.888777 7.572506 -5.072726 -34.432614 25.089295 -2.481536 55.281192 0.659811 9.158039 1.143977 0.510720 0.390090 0.517390 17.985374 -10.450751 2.410296 -10.718114 5.785642 -20.651383 -1.510504 -8.103789 53.889073 -1.099882 -7.564347 1.620248 0.245430 -0.297290 0.073330 -2.706402 -3.596801 -8.350116 7.665055 -0.906833 33.826321 2.752945 3.012736 -2.840511 1.715686 -4.344594 -5.474865 -10.871130 5.517057 43.453094 -4.475230 3.009910 -17.461760 -35.014789 -0.155585 0.341187 -36.310926 11.410284 -11.190337 -8.740502 -41.370740 1.352048 -3.286168 3.139634 0.502830 -0.219970 0.307120 0.024630 31.543004 7.006168 2.266641 30.087891 4.509954 -9.881552 51.395741 74.743875 32.068256 2.343702 -1.723836 -0.029100 0.141150 -0.152570 -0.246240 
1.521210 15.036050 0.288350 -3.421692 -8.903156 -10.027431 -15.415851 14.050072 3.811910 5.481034 -5.140664 -33.274149 31.822992 -6.077193 49.508100 0.681580 8.836213 1.273179 0.520320 0.402060 0.520590 17.963760 -10.410844 2.444257 -10.899158 5.708034 -19.866586 0.422255 -9.200374 53.419933 -1.123314 -7.649744 1.595041 0.249390 -0.307400 0.069200 -2.681210 -3.828646 -8.328183 9.095384 -1.327828 33.706980 4.076337 2.886644 -2.052493 1.653056 -4.768653 -5.795908 -11.683636 5.760165 43.451187 -4.632100 2.704010 -17.809020 -33.699466 0.271259 0.672038 -37.879720 12.434375 -11.572158 -7.775263 -41.871464 1.087762 -3.281122 3.105901 0.506760 -0.231160 0.313690 0.027230 30.390139 7.133464 2.284161 28.505429 5.998846 -8.534921 58.392503 79.103728 39.576823 2.488610 -1.548210 -0.023660 0.144100 -0.157360 -0.243860 
1.615790 15.007700 0.302640 -4.919787 -8.195497 -9.450558 -15.411302 14.049950 3.789640 3.729622 -5.168844 -32.247235 37.408729 -8.082373 43.195069 0.696920 8.515885 1.408920 0.520560 0.405510 0.503260 17.967025 -10.370196 2.472791 -11.337977 5.579611 -19.621251 2.380965 -10.154473 52.189772 -1.108268 -7.635036 1.602782 0.250960 -0.293830 0.074110 -2.711874 -3.901462 -8.319833 10.974202 -1.608464 33.162260 5.353372 2.889307 -1.177367 1.550364 -5.106863 -6.015636 -12.043060 5.398622 42.060079 -4.629680 2.061980 -18.043260 -32.014443 1.109147 0.980146 -39.307811 13.860768 -12.200035 -9.813593 -44.615673 1.885856 -3.279799 3.130769 0.494070 -0.224880 0.305320 0.039710 28.891651 6.773979 2.240066 26.653604 7.823085 -6.330323 68.001595 84.510015 50.197602 2.827942 -0.898455 -0.018290 0.145400 -0.157820 -0.230560 
1.708050 15.002300 0.308320 -6.066838 -7.528373 -8.608885 -15.411307 14.015097 3.775109 2.628058 -5.100401 -31.605490 40.419508 -8.532546 38.339597 0.678631 8.141133 1.549595 0.522290 0.414420 0.488170 17.969634 -10.337547 2.492214 -11.991306 5.387151 -19.540960 4.378232 -10.933630 50.321554 -1.068586 -7.515806 1.639325 0.252920 -0.280180 0.073990 -2.732927 -3.903850 -8.307243 12.007179 -1.538537 32.198464 6.723443 2.878782 -0.221048 1.379774 -5.080253 -6.197065 -11.736893 5.017232 40.850162 -3.821480 1.559710 -18.260680 -29.498659 2.038438 1.411205 -40.840909 14.809205 -12.626890 -12.647639 -47.053846 3.104213 -3.277152 3.165751 0.478810 -0.223200 0.298350 0.050650 26.762466 6.154745 1.749764 25.979989 10.329749 -4.121438 80.833923 88.465017 64.159292 3.594391 1.419721 -0.010490 0.147130 -0.161680 -0.214720 
1.816770 15.022960 0.330200 -7.124966 -7.213646 -7.732349 -15.381464 14.021609 3.706639 2.165978 -4.826451 -30.688923 41.375206 -8.331269 35.303834 0.644306 7.792679 1.676169 0.510710 0.404400 0.463880 17.982049 -10.423870 2.457691 -12.884829 4.821200 -18.711999 6.348438 -11.325610 46.843785 -0.966245 -7.160011 1.754034 0.244230 -0.260360 0.076170 -2.800604 -3.765745 -8.221319 13.159895 -1.279572 30.648824 7.961702 3.047591 0.039103 1.205558 -4.877220 -5.887554 -11.099760 4.630622 40.617402 -3.053610 1.149560 -17.627390 -26.350912 3.209450 2.465021 -42.651803 16.553879 -13.084620 -17.914160 -50.408128 5.503517 -3.286163 3.247976 0.459070 -0.213440 0.283110 0.059240 23.887895 6.113771 -0.438816 26.060037 10.157619 -9.274153 99.601664 81.991536 80.961863 3.527841 3.560008 -0.005160 0.140650 -0.159240 -0.199790 
